<svg id="Capa_1" enable-background="new 0 0 512 512" height="512" viewBox="0 0 512 512" width="512" xmlns="http://www.w3.org/2000/svg" xmlns:xlink="http://www.w3.org/1999/xlink"><linearGradient id="SVGID_1_" gradientUnits="userSpaceOnUse" x1="195" x2="195" y1="315" y2="0"><stop offset="0" stop-color="#c3ffe8"/><stop offset=".9973" stop-color="#f0fff4"/></linearGradient><linearGradient id="SVGID_2_" gradientUnits="userSpaceOnUse" x1="263.5" x2="263.5" y1="512" y2="120"><stop offset="0" stop-color="#00b59c"/><stop offset="1" stop-color="#9cffac"/></linearGradient><g><g><g><path d="m270 195h-90c-16.816 0-30 13.184-30 30s13.184 30 30 30h90c16.816 0 30-13.184 30-30s-13.184-30-30-30zm90 30c-16.816 0-30 13.184-30 30v30c0 16.816 13.184 30 30 30s30-13.184 30-30v-30c0-16.816-13.184-30-30-30zm-285-135c-41.367 0-75 33.647-75 75 0 31.787 20.127 60.22 50.098 70.767 7.654 2.733 16.351-1.263 19.131-9.17 2.754-7.822-1.348-16.377-9.17-19.131-17.989-6.328-30.059-23.394-30.059-42.466 0-24.814 20.186-45 45-45 8.291 0 15-6.709 15-15s-6.709-15-15-15zm150 30c33.076 0 60-26.909 60-60s-26.924-60-60-60-60 26.909-60 60 26.924 60 60 60z" fill="url(#SVGID_1_)"/></g></g><g><g><path d="m497 240h-44.599c-10.201-23.701-26.701-44.401-47.401-60v-45c0-8.401-6.599-15-15-15-24 0-46.5 11.4-60.601 30.599-4.799-.299-9.6-.599-14.399-.599h-150c-82.8 0-150 67.2-150 150 0 60 35.7 113.699 90 137.398v59.602c0 8.399 6.599 15 15 15h60c8.401 0 15-6.601 15-15v-47h90v47c0 8.399 6.599 15 15 15h60c8.401 0 15-6.601 15-15v-59.602c34.799-15 62.401-42.599 77.401-77.398h14.599c24.901 0 45-20.102 45-45v-60c0-8.401-6.599-15-15-15zm-227 0h-90c-8.401 0-15-6.601-15-15 0-8.401 6.599-15 15-15h90c8.401 0 15 6.599 15 15 0 8.399-6.599 15-15 15zm105 45c0 8.399-6.599 15-15 15s-15-6.601-15-15v-30c0-8.401 6.599-15 15-15s15 6.599 15 15z" fill="url(#SVGID_2_)"/></g></g></g></svg>